<?xml version="1.0" encoding="UTF-8"?>
<svg width="135px" height="135px" viewBox="0 0 135 135" version="1.1" xmlns="http://www.w3.org/2000/svg" xmlns:xlink="http://www.w3.org/1999/xlink">
    <!-- Generator: sketchtool 54.1 (76490) - https://sketchapp.com -->
    <title>33F199F0-7479-4C05-AB92-12E681005C2D</title>
    <desc>Created with sketchtool.</desc>
    <g id="Profile-final" stroke="none" stroke-width="1" fill="none" fill-rule="evenodd">
        <g id="Profile---Empty-profile---Edit-mode" transform="translate(-120.000000, -193.000000)" fill="#CCCFD1" fill-rule="nonzero">
            <g id="profile_avatar" transform="translate(120.000000, 193.000000)">
                <path d="M115.229883,87.2701172 C107.87792,79.918418 99.1271777,74.4759668 89.5796191,71.1813867 C99.8053418,64.1384473 106.523438,52.3515234 106.523438,39.0234375 C106.523438,17.5059668 89.0174707,0 67.5,0 C45.9825293,0 28.4765625,17.5059668 28.4765625,39.0234375 C28.4765625,52.3515234 35.1946582,64.1384473 45.4206445,71.1813867 C35.8730859,74.4759668 27.1223438,79.918418 19.7703809,87.2701172 C7.02131836,100.019443 0,116.970117 0,135 L10.546875,135 C10.546875,103.595889 36.0958887,78.046875 67.5,78.046875 C98.9041113,78.046875 124.453125,103.595889 124.453125,135 L135,135 C135,116.970117 127.978682,100.019443 115.229883,87.2701172 Z M67.5,67.5 C51.7980762,67.5 39.0234375,54.725625 39.0234375,39.0234375 C39.0234375,23.32125 51.7980762,10.546875 67.5,10.546875 C83.2019238,10.546875 95.9765625,23.32125 95.9765625,39.0234375 C95.9765625,54.725625 83.2019238,67.5 67.5,67.5 Z" id="Shape"></path>
            </g>
        </g>
    </g>
</svg>